PathFileType	4	(X/Y/Z)	C:\Users\°ÂÌØÂü\Desktop\20210112\bx_n_5_501-Unnamed.trc
DataRate	CameraRate	NumFrames	NumMarkers	Units	OrigDataRate	OrigDataStartFrame	OrigNumFrames
50.00	50.00	       8	0	mm	50.00	324	       517
Frame#	Time	
		

324	6.460	-347.84821	125.01434	1723.10327	-688.42609	242.39194	1056.48303	-669.16779	-6.51605	808.65503	-745.44720	146.83707	575.26654	-771.91602	272.64752	742.77557	-679.03369	-3.52834	1041.39990	-788.95404	254.18706	639.32739	-723.91595	208.53667	538.77142	-812.42285	262.39706	495.21408	-517.94836	-73.00831	143.17789	-549.62811	-22.77926	161.92366	-794.63068	35.72101	174.97758	-514.71356	-62.40099	1463.75854	-601.09479	27.15498	168.54018	-536.04279	109.62921	1268.03369	-717.40833	156.53389	220.27496	-797.82355	181.05946	183.03752	-771.70404	230.43994	203.28629	-593.34442	218.05521	173.69710	-882.54926	296.21472	144.82686	-556.57111	254.21486	163.74702	-660.58344	298.74677	156.58684	-623.66718	306.59601	158.77347	-527.94189	304.19305	146.52049	-675.44611	51.03870	161.95036	-768.22815	-36.27793	567.85736	-799.94397	-49.94316	484.03708	-762.30267	-23.92549	205.78616	-875.87097	-78.64214	141.18979	-750.65277	-72.72134	874.85455	-764.90540	-38.80173	615.87000				-676.62109	173.95712	160.78835	-606.00769	-74.39145	157.27197	-649.00281	-68.95044	160.58881	-760.61743	-63.46904	757.46863	-723.90039	65.74156	219.51427	-527.56396	295.23413	1465.07983	-877.83466	92.72775	1080.54810	-779.31262	282.38663	874.70435	-672.79883	227.88889	798.66504	-712.58862	12.49185	526.18396	-782.70105	250.66846	573.10815	-748.11908	70.50401	572.15009	
325	6.480	-338.24374	125.93024	1714.25427	-692.39490	242.21289	1055.39246	-671.71838	-7.16306	809.31293	-747.51074	146.73552	575.24939	-775.06262	273.23233	742.78436	-682.50555	-4.00837	1039.85840	-791.71588	253.45308	638.87634	-725.86737	208.43204	539.04108	-814.13440	262.23633	494.95187	-517.88416	-72.70086	143.09944	-549.75006	-22.71853	161.92773	-794.78821	35.55027	174.90663	-507.85733	-61.92472	1456.99756	-601.12476	27.17120	168.53467	-533.86310	109.22884	1261.58105	-717.50342	156.46008	220.29442	-797.82355	181.05946	183.03752	-771.82050	230.55699	203.41136	-593.18677	218.53539	173.75536	-882.60345	296.25919	144.88931	-556.76404	254.30817	163.66508	-660.87091	298.88193	156.46306	-623.66718	306.59601	158.77347	-528.02570	304.11914	146.36893	-675.63855	50.91413	162.01872	-769.66968	-37.02054	567.80353	-801.38123	-50.23488	483.47278	-762.44244	-23.86716	205.62973	-875.88751	-78.54328	141.29303	-753.92188	-72.66503	874.77765	-766.47070	-39.45409	616.06409				-676.45184	174.03288	161.10339	-605.78815	-74.18137	156.71208	-649.20782	-69.08060	160.43738	-762.74414	-63.93021	757.67627	-724.82495	65.15243	219.37903	-522.79541	294.13177	1458.53540	-880.56848	91.75173	1081.25134	-783.39319	282.12488	874.74286	-676.73853	227.42882	798.58240	-714.45941	12.56479	525.96021	-784.66040	250.52045	572.74487	-750.04901	69.89794	571.76331	
326	6.500	-329.22281	126.22520	1705.10840	-695.97394	243.06754	1055.13403	-674.86053	-6.95967	808.84808	-749.70404	146.12334	575.45929	-778.59937	273.52353	742.84052	-685.04401	-3.91018	1039.18982	-794.35663	253.85591	638.89240	-727.43146	208.69051	539.09808	-816.01459	262.09525	494.63574	-517.84180	-72.91776	143.07706	-549.83484	-22.86982	161.90160	-794.82056	35.30499	174.65955	-501.73520	-61.32121	1450.58508	-601.19354	27.07519	168.51752	-531.95380	109.78824	1255.49683	-718.11053	156.21619	220.70779	-797.93976	181.09383	182.96469	-772.19501	230.54665	203.30806	-593.53198	218.44009	173.84319	-882.60455	296.08044	144.69267	-556.94104	254.26361	163.72240	-660.63867	298.91257	156.60234	-623.73676	306.47693	158.72270	-527.89050	304.09311	146.45096	-675.82214	50.90875	162.42702	-771.32495	-37.10530	567.42322	-802.77911	-51.12547	483.40613	-762.52063	-24.25463	205.25970	-875.87097	-78.64214	141.18979	-756.70209	-72.89746	874.55090	-768.97308	-39.95375	615.42596				-676.45184	174.03288	161.10339	-605.66138	-74.34955	156.76297	-649.15814	-69.16147	160.56218	-765.06006	-64.49979	757.43573	-724.71240	64.78840	219.56351	-517.86591	294.20685	1452.85559	-883.04254	90.85522	1081.87781	-787.10205	281.59772	874.11230	-680.16315	227.15729	798.75757	-715.87402	12.29693	525.94971	-786.96503	250.10838	572.47430	-751.99518	69.97893	571.75415	
327	6.520	-320.68896	126.71751	1695.94519	-699.45581	242.19466	1053.71326	-678.05560	-7.00270	808.93469	-751.98798	146.20912	575.08392	-781.46704	273.03036	742.10992	-688.72589	-4.29883	1037.52112	-796.83777	253.25383	638.17358	-730.17828	208.28485	538.61444	-817.75793	262.06097	494.36459	-517.90948	-72.99763	143.10272	-549.80670	-22.27587	162.07353	-794.92145	34.90252	174.56528	-495.18607	-60.72154	1443.56030	-601.37207	26.95751	168.42868	-529.90283	110.39725	1248.98474	-718.41992	156.30960	220.81143	-798.00507	181.23148	182.82475	-772.26801	230.54514	203.24498	-593.63275	218.61632	173.80353	-882.51123	296.22720	144.76778	-557.13354	254.19760	163.66988	-660.87091	298.88193	156.46306	-623.66718	306.59601	158.77347	-528.04993	304.17468	146.41859	-675.96472	50.83506	162.27269	-773.15411	-37.51272	567.21625	-804.17505	-51.17400	482.34009	-762.76752	-24.23177	204.99489	-875.87097	-78.64214	141.18979	-760.23859	-73.22067	873.93646	-770.63647	-40.16552	615.04510				-676.44849	174.11649	161.15436	-606.20837	-74.24548	156.54660	-649.11041	-69.16604	160.27412	-767.54993	-64.56812	757.02924	-725.27850	64.82320	219.64075	-513.10046	294.49829	1446.62598	-885.49695	89.66285	1082.29858	-790.86371	281.88327	874.01752	-683.23883	226.80196	798.48132	-717.45032	11.98985	525.98553	-789.17181	250.10751	571.97723	-754.18457	69.64488	571.43530	
328	6.540	-312.19608	127.43581	1686.69067	-702.68713	241.99599	1052.85425	-681.05298	-7.28572	808.58429	-754.13318	146.06215	574.85156	-784.05469	273.46478	742.06958	-691.52045	-4.98578	1036.54822	-799.23279	253.29980	637.96869	-731.82166	208.07372	538.66699	-819.51434	261.84668	493.76202	-517.87250	-72.87356	143.16914	-549.93713	-22.22268	162.05711	-795.13556	34.63600	174.34349	-489.18130	-60.18037	1436.62720	-601.42340	26.95011	168.36115	-528.85455	110.46595	1242.85730	-718.74396	156.57104	220.60484	-798.09930	181.19321	182.93044	-772.19501	230.54665	203.30806	-593.72565	218.47498	173.86569	-882.55676	296.08594	144.72644	-557.23840	254.12001	163.69742	-660.66162	298.78836	156.48184	-623.61658	306.63086	158.82912	-528.18793	304.40698	146.46918	-675.90680	50.78571	162.37767	-774.78186	-38.23597	567.45874	-805.43793	-52.13201	482.42062	-762.74548	-24.75574	204.84613	-875.87097	-78.64214	141.18979	-763.27704	-73.35629	873.66803	-772.35944	-40.96030	614.72614				-676.58313	174.04539	161.22096	-605.86328	-74.19801	156.50890	-649.13837	-69.23537	160.31580	-770.62476	-65.43603	756.80750	-725.44281	64.89594	219.58632	-508.82727	294.30933	1440.24597	-888.91132	89.57954	1083.20630	-794.12085	281.45868	873.82855	-686.86194	226.43001	798.40991	-719.46967	11.84423	525.79773	-791.50928	249.60245	571.83966	-756.10205	69.37914	571.35846	
329	6.560	-304.18570	128.01114	1677.43677	-706.26495	241.73793	1051.56006	-683.90698	-7.71081	808.71820	-755.28302	145.59329	575.26843	-786.99219	272.94882	741.59943	-694.28168	-4.82679	1035.25317	-801.72858	252.91339	637.32477	-733.45258	208.03064	538.70374	-821.11951	261.98047	493.48590	-517.94458	-72.73648	143.27866	-549.91064	-22.05770	162.09612	-795.21008	34.30367	174.22227	-483.33563	-59.32336	1429.38586	-601.50494	26.89772	168.21370	-527.95270	111.02029	1236.78125	-718.56604	156.45441	220.71844	-798.06744	180.87033	183.24745	-772.28058	230.58601	203.03545	-593.74713	218.33476	173.88153	-882.58124	296.13739	144.77245	-557.18335	254.20638	163.90833	-660.82178	299.02744	156.65234	-623.71790	306.62170	158.69186	-528.21796	304.42383	146.39923	-676.09418	50.84748	162.47267	-776.41272	-38.21302	566.44635	-806.55396	-52.57307	482.13257	-762.72882	-25.52275	204.84978	-875.88751	-78.54328	141.29303	-766.29675	-73.85855	872.76941	-774.25494	-41.09737	614.63696				-676.59094	174.13817	161.36789	-605.71350	-74.27158	156.91200	-649.13513	-69.26949	160.20853	-773.13165	-66.14283	756.69965	-725.82330	64.37152	219.57506	-504.01151	294.40564	1433.71814	-891.92163	89.00101	1083.63684	-797.90448	280.88303	873.19250	-689.82568	226.47142	798.58636	-720.68854	11.20208	526.09821	-793.27991	249.46158	571.72491	-758.18408	68.69948	571.28412	
330	6.580	-296.67264	128.51305	1668.41736	-709.08942	241.16426	1050.59692	-686.73035	-8.19771	808.52240	-757.71857	145.55954	574.62653	-789.75256	273.30380	741.16034	-697.42096	-5.23727	1034.08435	-803.51355	252.69569	636.95154	-734.97571	207.63231	538.76440	-822.62524	261.54065	493.12427	-517.98920	-72.72042	143.29906	-549.93713	-22.22268	162.05711	-795.30603	33.81214	174.26073	-477.60562	-58.83041	1422.25781	-601.62042	27.02074	168.30563	-526.98120	111.33753	1230.97034	-718.92090	156.50307	220.57915	-798.16418	180.90219	183.18301	-771.68872	230.53230	203.15564	-593.72638	218.55821	173.76541	-882.56281	296.07834	144.74361	-557.35889	254.17448	163.78085	-660.75616	298.81464	156.49573	-623.66718	306.59601	158.77347	-527.90155	304.19394	146.70193	-675.90875	50.53252	163.04471	-777.74908	-39.46768	566.95282	-807.80200	-53.27664	481.93103	-762.76373	-25.59101	204.79138	-875.88751	-78.54328	141.29303	-768.97375	-74.87707	873.46991	-776.31281	-41.57360	614.37140				-676.59094	174.13817	161.36789	-605.68036	-74.19592	156.46358	-649.05286	-69.38243	160.12036	-775.25616	-66.73170	756.37817	-726.00684	64.42273	219.89854	-500.02060	294.49545	1427.48706	-894.33008	88.63282	1084.01794	-800.91168	281.21765	873.12207	-692.74878	225.71489	798.21173	-722.58667	10.67204	526.07422	-795.09723	248.89769	571.23779	-759.88007	68.21668	570.59863	
331	6.600	-289.90622	129.27428	1659.25623	-712.12982	241.00598	1049.68054	-689.10474	-8.58459	808.50439	-759.38892	145.45450	574.28815	-792.15216	273.01401	740.51367	-700.15076	-4.87498	1032.70630	-805.50110	252.71730	636.66595	-736.43054	207.35228	538.60846	-823.47168	261.03720	492.52246	-517.90961	-72.87302	143.22429	-549.91064	-22.05770	162.09612	-795.51563	33.63888	174.47803	-472.08484	-58.28175	1415.18848	-601.66571	27.03418	168.20461	-526.19891	111.66338	1224.74243	-719.01093	156.50848	220.47493	-798.08667	180.84993	183.18611	-771.67877	230.41930	203.35240	-593.83472	218.54585	173.79012	-882.55164	296.16013	144.69978	-557.27631	254.18845	163.72409	-660.93921	298.92950	156.54572	-623.66718	306.59601	158.77347	-527.90997	304.41092	146.68427	-676.11346	50.61572	162.83286	-779.49518	-39.20066	566.03680	-808.71161	-53.80674	481.21747	-763.01996	-26.04692	204.87262	-875.99792	-78.69180	141.55168	-771.64429	-75.22632	872.93909	-777.95776	-41.87367	614.41089				-676.36603	174.23611	161.37955	-605.60120	-74.24760	156.60706	-648.99371	-69.44859	160.11488	-777.72559	-67.39035	756.05469	-726.51038	63.98877	219.90076	-495.61533	294.48380	1421.07739	-896.72949	87.77824	1084.18896	-803.96649	281.01733	872.88788	-695.80115	225.17285	798.27081	-723.66162	10.70780	526.18567	-796.33722	248.64497	571.06000	-761.66345	67.66683	570.40302	
